<svg version="1.1" xmlns="http://www.w3.org/2000/svg" style="display: block;" viewBox="0 0 2048 1170" width="1344" height="768" preserveAspectRatio="none">
<defs>
	<linearGradient id="Gradient1" gradientUnits="userSpaceOnUse" x1="326.776" y1="1058.04" x2="327.164" y2="1064.03">
		<stop class="stop0" offset="0" stop-opacity="1" stop-color="rgb(35,78,156)"/>
		<stop class="stop1" offset="1" stop-opacity="1" stop-color="rgb(40,96,203)"/>
	</linearGradient>
</defs>
<path transform="translate(0,0)" fill="rgb(253,254,254)" d="M 0 0 L 639.038 0 L 672.778 0 L 2048 0 L 2048 1170 L 1691.6 1170 L 1614.19 1170 L 1603.17 1170 L 1530.37 1170 L 1525.24 1170 L 0 1170 L 0 0 z"/>
<path transform="translate(0,0)" fill="rgb(251,146,178)" d="M 756.101 154.16 C 773.34 158.563 783.93 161.815 793.005 178.048 C 812.976 213.772 830.177 251.746 849.489 287.758 C 837.035 301.635 830.027 308.554 814.934 320.12 C 811.253 322.77 807.522 325.521 803.774 328.057 C 802.049 329.303 800.31 330.532 798.56 331.742 C 743.38 360.625 685.264 367.533 627.096 341.389 C 608.696 333.282 601.314 328.738 584.631 316.938 L 568.29 301.883 C 565.39 299.123 561.835 294.294 559.271 291.031 C 564.755 272.247 585.768 190.501 594.801 179.409 C 601.257 171.481 610.65 168.33 618.441 162.218 C 618.637 162.064 618.829 161.906 619.022 161.75 C 634.695 163.993 689.492 179.468 698.501 177.619 L 702.946 178.786 C 709.415 180.271 722.213 180.61 726.919 175.143 L 728.584 173.235 L 732.228 173.216 C 737.594 171.2 751.713 158.177 756.101 154.16 z"/>
<path transform="translate(0,0)" fill="rgb(246,226,241)" d="M 726.919 175.143 L 728.584 173.235 L 732.228 173.216 C 730.014 193.725 734.327 242.14 730.036 258.395 L 729.074 258.668 C 725.024 249.638 726.062 187.691 726.919 175.143 z"/>
<path transform="translate(0,0)" fill="rgb(246,226,241)" d="M 698.501 177.619 L 702.946 178.786 C 703.006 179.669 703.049 180.554 703.075 181.439 C 703.404 191.612 704.957 255.978 701.141 260.02 C 696.253 253.858 697.238 189.425 698.501 177.619 z"/>
<path transform="translate(0,0)" fill="rgb(98,53,73)" d="M 796.44 231.434 C 796.937 231.951 797.435 232.468 797.933 232.986 C 798.311 253.592 804.84 304.933 804.414 322.514 C 804.387 324.378 804.172 326.235 803.774 328.057 C 802.499 325.478 795.565 239.342 796.44 231.434 z"/>
<path transform="translate(0,0)" fill="rgb(98,53,73)" d="M 627.096 341.389 C 626.64 335.143 645.456 257.669 648.58 250.499 L 649.49 250.223 C 649.996 253.014 629.33 336.521 627.096 341.389 z"/>
<path transform="translate(0,0)" fill="rgb(10,193,139)" d="M 1469.29 1125.64 C 1485.52 1097.08 1499.48 1065.18 1514.9 1036 C 1533.83 1000.19 1534.04 992.826 1576.28 986.491 C 1578.76 1010.78 1588.61 1034.38 1600.85 1055.33 C 1624.77 1034.67 1648.65 1014.81 1664.08 986.652 C 1681.13 988.777 1703.1 990.142 1714.43 1004.98 C 1726.09 1020.24 1741.11 1096.13 1750.08 1122.21 C 1731 1144.95 1717.57 1155.07 1691.6 1170 L 1614.19 1170 L 1603.17 1170 L 1530.37 1170 L 1525.24 1170 C 1523.09 1168.13 1522.27 1167.91 1519.63 1166.71 C 1501.63 1156.07 1482.28 1142.24 1469.29 1125.64 z"/>
<path transform="translate(0,0)" fill="rgb(249,158,135)" d="M 1565.63 1088.96 C 1574.29 1097.48 1584.48 1110.65 1593.72 1116.38 C 1592.11 1126.72 1589.48 1138.11 1587.32 1148.44 C 1582.2 1146.65 1567.1 1141.26 1562.31 1141.56 C 1556.73 1139.08 1543.85 1138.04 1538.11 1134.1 C 1533.52 1130.95 1538.5 1131.59 1537.23 1124.92 L 1533.99 1122.8 L 1533.35 1118.13 C 1532.37 1117.63 1531.36 1116.67 1530.47 1115.94 L 1532.22 1112.52 L 1531.35 1111.3 C 1534.57 1109.25 1548.59 1100.52 1551.08 1098.68 C 1553.21 1100.12 1553.35 1100.23 1555.79 1100.94 C 1558.72 1101.98 1560.81 1103.13 1563.71 1102.38 C 1565.5 1099.27 1565.14 1093.46 1565.63 1088.96 z"/>
<path transform="translate(0,0)" fill="rgb(216,132,114)" d="M 1532.22 1112.52 C 1538.93 1112.66 1554.54 1118.66 1560.38 1122.1 C 1554.48 1121.46 1535.36 1116.95 1533.35 1118.13 C 1532.37 1117.63 1531.36 1116.67 1530.47 1115.94 L 1532.22 1112.52 z"/>
<path transform="translate(0,0)" fill="rgb(216,132,114)" d="M 1540.13 1125.07 C 1543.91 1125.09 1553.07 1126.46 1555.54 1129.12 C 1551.11 1129.16 1544.39 1129.76 1540.68 1127.72 L 1540.13 1125.07 z"/>
<path transform="translate(0,0)" fill="rgb(216,132,114)" d="M 1539.81 1107.2 C 1545.76 1106.8 1552.75 1108.76 1557.88 1111.78 C 1550.88 1112.07 1546.11 1110.03 1539.81 1107.2 z"/>
<path transform="translate(0,0)" fill="rgb(45,43,44)" d="M 1514.22 1083.08 C 1528.79 1082.83 1552.87 1081.76 1566.66 1082.89 C 1566.39 1084.64 1566.07 1087.31 1565.63 1088.96 C 1565.14 1093.46 1565.5 1099.27 1563.71 1102.38 C 1560.81 1103.13 1558.72 1101.98 1555.79 1100.94 C 1553.35 1100.23 1553.21 1100.12 1551.08 1098.68 C 1548.59 1100.52 1534.57 1109.25 1531.35 1111.3 L 1532.22 1112.52 L 1530.47 1115.94 C 1531.36 1116.67 1532.37 1117.63 1533.35 1118.13 L 1533.99 1122.8 L 1518.62 1122.81 C 1516.97 1112.92 1515.06 1093.19 1514.22 1083.08 z"/>
<path transform="translate(0,0)" fill="rgb(251,197,74)" d="M 1531.35 1111.3 C 1528.71 1094.81 1538.07 1082.52 1551.08 1098.68 C 1548.59 1100.52 1534.57 1109.25 1531.35 1111.3 z"/>
<path transform="translate(0,0)" fill="rgb(249,249,230)" d="M 1530.47 1115.94 C 1523.19 1106.44 1523.34 1091.5 1536.22 1087.66 C 1539.83 1086.57 1543.74 1086.97 1547.04 1088.79 C 1552.22 1091.68 1554.31 1095.51 1555.79 1100.94 C 1553.35 1100.23 1553.21 1100.12 1551.08 1098.68 C 1538.07 1082.52 1528.71 1094.81 1531.35 1111.3 L 1532.22 1112.52 L 1530.47 1115.94 z"/>
<path transform="translate(0,0)" fill="rgb(253,254,254)" d="M 1511.59 1064.66 L 1538.5 1064.67 C 1545.52 1064.73 1562.65 1064.46 1568.86 1065.34 C 1567.14 1070.67 1566.79 1077.25 1566.66 1082.89 C 1552.87 1081.76 1528.79 1082.83 1514.22 1083.08 C 1513.5 1076.82 1512.57 1070.88 1511.59 1064.66 z"/>
<path transform="translate(0,0)" fill="rgb(45,43,44)" d="M 1532.46 1049.79 C 1539.26 1049.77 1560.3 1049.13 1565.36 1050.6 L 1565.47 1051.18 C 1565.9 1053.34 1565.92 1053.61 1566.88 1055.54 C 1568.74 1056.3 1570.48 1057.02 1572.32 1057.84 C 1572.58 1060.86 1572.55 1061.22 1571.39 1064.01 L 1568.86 1065.34 C 1562.65 1064.46 1545.52 1064.73 1538.5 1064.67 C 1532.35 1064.15 1509.7 1065.73 1507.1 1061.67 C 1508.34 1058.55 1510.64 1057.16 1513.31 1054.97 C 1513.67 1052.76 1513.86 1052.69 1514.97 1050.82 C 1518.55 1048.76 1524.66 1049.73 1529.02 1049.99 L 1532.46 1049.79 z"/>
<path transform="translate(0,0)" fill="rgb(253,254,254)" d="M 1518.62 1122.81 L 1533.99 1122.8 L 1537.23 1124.92 C 1538.5 1131.59 1533.52 1130.95 1538.11 1134.1 C 1543.85 1138.04 1556.73 1139.08 1562.31 1141.56 C 1561.73 1144.19 1561.77 1144.79 1560.18 1146.86 C 1551.93 1147.9 1530.81 1147.2 1521.16 1147.15 C 1520.1 1139.43 1519.41 1130.63 1518.62 1122.81 z"/>
<path transform="translate(0,0)" fill="rgb(2,118,80)" d="M 1678.88 1121.09 C 1671.71 1104.97 1666.09 1071.76 1659.9 1053.92 C 1660.19 1053.04 1660.43 1052.28 1660.64 1051.66 C 1664.8 1054.82 1676.65 1112.15 1681.31 1122.1 C 1685.18 1122.98 1698.54 1125.29 1700.4 1126.79 L 1700.22 1128.39 C 1685.39 1125.56 1605.36 1105.89 1597.91 1107.11 C 1595.39 1113.04 1587.15 1156.52 1586.6 1163.21 C 1593.7 1164.4 1607.84 1166.67 1614.19 1170 L 1603.17 1170 C 1599.01 1167.56 1590.87 1166.77 1583.31 1162.8 C 1584.59 1157.89 1585.78 1153.29 1587.32 1148.44 C 1589.48 1138.11 1592.11 1126.72 1593.72 1116.38 C 1594.32 1112.12 1595.1 1107.4 1595.54 1103.15 C 1622.03 1108.16 1654.08 1116.93 1678.88 1121.09 z"/>
<path transform="translate(0,0)" fill="rgb(223,238,244)" d="M 1528.56 1152.24 C 1528.96 1158.62 1529.2 1163.68 1530.37 1170 L 1525.24 1170 C 1523.09 1168.13 1522.27 1167.91 1519.63 1166.71 C 1523.1 1161.6 1525.74 1157.81 1528.56 1152.24 z"/>
<path transform="translate(0,0)" fill="rgb(2,118,80)" d="M 1529.02 1049.99 C 1531.48 1045.17 1537.16 1031.48 1539.62 1028.58 C 1538.82 1038.95 1533.47 1044 1532.46 1049.79 L 1529.02 1049.99 z"/>
<path transform="translate(0,0)" fill="rgb(249,158,135)" d="M 656.207 74.7509 C 659.136 73.7108 661.208 72.5914 664.163 73.2141 C 670.361 77.9213 666.714 81.6031 668.463 88.8941 L 670.455 89.4638 C 690.148 79.4421 655.591 31.044 714.685 44.3843 C 715.869 44.6516 736.426 41.5354 740.103 40.9918 C 743.771 44.6067 745.345 52.9841 748.779 58.0139 C 749.044 83.8878 752.356 103.306 733.525 122.544 L 733.014 123.064 C 743.202 130.039 757.247 140.349 756.101 154.16 C 751.713 158.177 737.594 171.2 732.228 173.216 L 728.584 173.235 L 726.919 175.143 C 722.213 180.61 709.415 180.271 702.946 178.786 L 698.501 177.619 C 689.492 179.468 634.695 163.993 619.022 161.75 C 602.554 149.381 618.566 127.955 628.616 117.087 C 641.291 103.381 655.797 105.877 672.864 105.976 C 672.949 104.397 673.092 101.18 671.757 100.302 C 663.422 94.8212 661.869 95.7255 655.528 87.5755 C 655.479 83.945 655.973 78.5205 656.207 74.7509 z"/>
<path transform="translate(0,0)" fill="rgb(224,60,76)" d="M 619.022 161.75 C 602.554 149.381 618.566 127.955 628.616 117.087 C 641.291 103.381 655.797 105.877 672.864 105.976 C 673.193 109.384 673.562 112.788 673.97 116.187 C 674.042 125.2 675.113 134.101 670.96 141.981 C 679.369 149.028 705.304 162.927 715.401 169.162 C 718.9 164.156 727.904 151.884 730.347 147.062 C 727.483 143.364 726.806 142.674 725.483 138.208 C 725.031 135.026 723.423 129.126 722.613 125.786 L 725.883 124.539 C 728.999 123.355 729.672 123.321 733.014 123.064 C 743.202 130.039 757.247 140.349 756.101 154.16 C 751.713 158.177 737.594 171.2 732.228 173.216 L 728.584 173.235 L 726.919 175.143 C 722.213 180.61 709.415 180.271 702.946 178.786 L 698.501 177.619 C 689.492 179.468 634.695 163.993 619.022 161.75 z"/>
<path transform="translate(0,0)" fill="rgb(178,37,49)" d="M 670.96 141.981 C 665.509 141.154 644.111 128.61 646.772 119.651 C 652.312 114.446 666.271 116.007 673.97 116.187 C 674.042 125.2 675.113 134.101 670.96 141.981 z"/>
<path transform="translate(0,0)" fill="rgb(178,37,49)" d="M 722.613 125.786 L 725.883 124.539 C 730.64 128.747 736.227 132.705 737.096 139.176 C 736.64 142.72 733.802 146.136 730.347 147.062 C 727.483 143.364 726.806 142.674 725.483 138.208 C 725.031 135.026 723.423 129.126 722.613 125.786 z"/>
<path transform="translate(0,0)" fill="rgb(216,132,114)" d="M 690.633 121.993 C 702.146 126.282 710.706 126.087 722.613 125.786 C 723.423 129.126 725.031 135.026 725.483 138.208 C 707.779 137.606 702.523 134.955 690.633 121.993 z"/>
<path transform="translate(0,0)" fill="rgb(96,42,34)" d="M 722.985 73.6135 C 725.056 75.208 728.616 82.4092 728.997 85.1534 C 729.678 90.0596 727.369 90.2297 723.911 92.0969 C 722.167 90.8973 721.392 90.721 720.461 89.0117 L 724.274 86.9661 C 726.625 81.1066 721.149 84.7107 722.985 73.6135 z"/>
<path transform="translate(0,0)" fill="rgb(38,24,23)" d="M 702.254 59.1121 C 705.464 58.7297 706.047 58.5759 709.042 59.7044 L 709.398 61.0731 C 707.439 63.6702 704.453 63.8695 701.249 64.5318 C 699.382 65.4327 698.966 65.3644 696.965 65.5061 L 696.022 64.0693 C 698.267 60.1799 697.608 61.3205 702.254 59.1121 z"/>
<path transform="translate(0,0)" fill="rgb(38,24,23)" d="M 728.709 57.374 C 736.058 56.3162 740.024 54.8624 744.317 61.6901 C 737.815 60.5765 732.453 62.9738 728.709 57.374 z"/>
<path transform="translate(0,0)" fill="rgb(96,42,34)" d="M 707.321 96.1936 C 713.574 100.944 714.007 100.969 721.797 100.696 L 721.8 102.518 C 717.169 104.086 709.09 102.49 706.694 97.8376 L 707.321 96.1936 z"/>
<path transform="translate(0,0)" fill="rgb(206,159,231)" d="M 568.29 301.883 L 584.631 316.938 C 572.472 341.144 560.612 368.231 548.41 393.137 L 449.807 593.916 C 436.322 621.996 422.694 650.006 408.922 677.946 C 402.31 691.589 394.019 710.988 386.571 723.191 L 365.874 716.685 C 409.995 623.851 456.106 530.866 501.537 438.642 L 541.305 358.108 C 550.048 340.509 560.852 319.829 568.29 301.883 z"/>
<path transform="translate(0,0)" fill="rgb(9,9,9)" d="M 639.038 0 L 672.778 0 C 674.416 1.86239 680.573 11.0069 681.589 10.8455 C 722.291 4.37927 751.12 12.2582 748.779 58.0139 C 745.345 52.9841 743.771 44.6067 740.103 40.9918 C 736.426 41.5354 715.869 44.6516 714.685 44.3843 C 655.591 31.044 690.148 79.4421 670.455 89.4638 L 668.463 88.8941 C 666.714 81.6031 670.361 77.9213 664.163 73.2141 C 661.208 72.5914 659.136 73.7108 656.207 74.7509 C 654.479 65.5461 653.976 57.0668 653.094 47.7799 C 652.743 43.8416 650.972 42.7393 647.623 41.0323 C 628.8 31.4382 624.085 17.4624 639.038 0 z"/>
<path transform="translate(0,0)" fill="rgb(182,188,238)" d="M 803.774 328.057 C 807.522 325.521 811.253 322.77 814.934 320.12 C 825.633 331.836 838.746 351.209 849.031 364.127 C 877.498 399.882 904.259 438.241 932.385 474.147 C 927.66 477.83 920.78 484.329 915.101 484.149 C 907.92 477.87 882.362 443.399 875.014 433.618 C 849.694 399.909 822.973 366.009 798.56 331.742 C 800.31 330.532 802.049 329.303 803.774 328.057 z"/>
<path transform="translate(0,0)" fill="rgb(55,124,253)" d="M 1667 263.242 C 1667.81 250.193 1669.03 239.692 1679.74 230.396 C 1698.42 214.187 1732.66 216.735 1749.03 235.113 C 1758.74 246.014 1760.35 265.232 1756.58 278.927 C 1769.91 305.595 1742.84 297.482 1742.83 314.57 C 1757.06 313.611 1773.42 312.383 1784.49 322.968 C 1795.99 333.955 1813.94 357.997 1794.81 370.317 C 1829.7 385.683 1827.98 399.163 1836.77 433.527 C 1841.53 452.142 1847.13 471.327 1851.07 490.126 C 1834.08 512.874 1813.78 533.676 1788.73 547.549 C 1759.18 564 1737.18 571.126 1703.21 574.973 L 1681.49 575.05 C 1662.09 575.312 1636.01 569.094 1617.94 562.538 C 1615.68 560.076 1607.49 559.216 1603.41 556.919 C 1591.11 549.995 1582.74 545.505 1572.26 536.07 C 1563.51 536.444 1533.18 500.877 1527.29 492.983 C 1526.62 481.052 1527.64 459.326 1527.82 446.884 L 1529.19 354.898 L 1545.02 354.646 C 1557.5 354.569 1569.99 354.372 1582.47 354.053 L 1597.89 354.008 C 1597.78 373.223 1597.79 392.437 1597.91 411.652 C 1612.29 396.247 1622.52 375.759 1641.21 367.423 C 1648.2 364.303 1653.72 363.383 1660.67 361.147 C 1664.53 344.998 1671.69 339.621 1684.53 330.475 C 1682.43 329.368 1680.46 328.049 1678.63 326.537 C 1661.54 312.474 1669.48 281.958 1667 263.242 z"/>
<path transform="translate(0,0)" fill="rgb(249,158,135)" d="M 1667 263.242 C 1667.81 250.193 1669.03 239.692 1679.74 230.396 C 1698.42 214.187 1732.66 216.735 1749.03 235.113 C 1758.74 246.014 1760.35 265.232 1756.58 278.927 C 1769.91 305.595 1742.84 297.482 1742.83 314.57 L 1742.19 323.071 C 1742.34 331.03 1742.27 342.526 1743.94 350.138 C 1730.68 358.307 1713.57 367.343 1701.39 375.386 C 1695.6 368.719 1691.62 363.896 1686.49 356.735 C 1688.97 352.726 1689.49 351.768 1691 347.316 C 1691.78 343.086 1692.4 338.359 1693.06 334.067 L 1692.29 333.881 C 1690.19 332.253 1687.1 331.395 1684.53 330.475 C 1682.43 329.368 1680.46 328.049 1678.63 326.537 C 1661.54 312.474 1669.48 281.958 1667 263.242 z"/>
<path transform="translate(0,0)" fill="rgb(9,9,9)" d="M 1667 263.242 C 1667.81 250.193 1669.03 239.692 1679.74 230.396 C 1698.42 214.187 1732.66 216.735 1749.03 235.113 C 1758.74 246.014 1760.35 265.232 1756.58 278.927 C 1754.16 279.648 1752.19 278.805 1750.08 280.538 C 1746.17 283.759 1748.2 287.12 1746.16 290.922 C 1742.96 292.037 1744.18 292.086 1741.13 291.355 C 1736.13 286.252 1739.17 267.554 1735.98 259.34 C 1732.7 247.899 1723.3 251.299 1714.44 252.002 C 1704.11 252.823 1693.9 254.967 1683.95 250.774 C 1681.12 249.579 1678.27 249.389 1675.2 250.421 C 1671.77 253.887 1670.69 258.925 1668.48 263.682 L 1667 263.242 z"/>
<path transform="translate(0,0)" fill="rgb(216,132,114)" d="M 1693.06 334.067 C 1708.46 335.945 1712.97 334.773 1727.79 329.805 C 1715.82 341.553 1708.54 346.35 1691 347.316 C 1691.78 343.086 1692.4 338.359 1693.06 334.067 z"/>
<path transform="translate(0,0)" fill="rgb(38,24,23)" d="M 1691.3 282.623 C 1692.84 287.12 1690.21 291.676 1688.5 296.335 C 1690.93 297.043 1692.63 297.459 1694.94 298.612 L 1693.77 300.033 C 1689.21 299.798 1688.36 300.288 1685.6 297.688 C 1684.97 293.964 1689.36 286.69 1691.3 282.623 z"/>
<path transform="translate(0,0)" fill="rgb(9,9,9)" d="M 1679.79 266.474 C 1682.42 265.978 1683.44 266.005 1685.19 267.792 C 1682.84 270.687 1683.36 269.826 1678.76 270.646 C 1674.7 271.427 1674.38 272.229 1671.25 270.717 L 1671.38 269.085 C 1675.12 266.234 1674.47 267.081 1679.79 266.474 z"/>
<path transform="translate(0,0)" fill="rgb(9,9,9)" d="M 1703.88 268.189 C 1709.85 267.954 1716.13 268.963 1719.34 274.237 C 1715.42 275.097 1706.02 271.716 1703.88 268.189 z"/>
<path transform="translate(0,0)" fill="rgb(73,38,32)" d="M 1707.93 303.983 L 1708.53 305.06 C 1705.99 312.326 1698.63 312.235 1692.15 311.584 L 1691.77 310.946 C 1693.53 306.973 1699.45 313.141 1707.93 303.983 z"/>
<path transform="translate(0,0)" fill="rgb(223,238,244)" d="M 1572.26 536.07 C 1596.02 528.146 1602.2 512.776 1621.43 498.868 C 1620.99 518.471 1617.66 544.747 1617.94 562.538 C 1615.68 560.076 1607.49 559.216 1603.41 556.919 C 1591.11 549.995 1582.74 545.505 1572.26 536.07 z"/>
<path transform="translate(0,0)" fill="rgb(31,74,152)" d="M 1742.19 323.071 C 1750.36 323.218 1764.04 322.383 1770.23 327.017 C 1771.07 328.868 1771.65 329.167 1770.68 331.336 C 1768.51 336.192 1748.7 347.87 1743.94 350.138 C 1742.27 342.526 1742.34 331.03 1742.19 323.071 z"/>
<path transform="translate(0,0)" fill="rgb(11,46,110)" d="M 1761.09 435.298 C 1764.15 441.058 1789.35 542.416 1788.73 547.549 C 1785.57 543.422 1760.92 442.714 1761.09 435.298 z"/>
<path transform="translate(0,0)" fill="rgb(31,74,152)" d="M 1692.29 333.881 L 1693.06 334.067 C 1692.4 338.359 1691.78 343.086 1691 347.316 C 1689.49 351.768 1688.97 352.726 1686.49 356.735 C 1683.07 351.632 1681.79 349.015 1679.2 343.454 C 1682.8 340.377 1688.31 336.704 1692.29 333.881 z"/>
<path transform="translate(0,0)" fill="rgb(31,74,152)" d="M 1660.67 361.147 C 1664.9 361.482 1681.44 375.562 1684.37 378.887 C 1684.83 379.41 1685.27 379.953 1685.69 380.514 C 1680.71 377.868 1662.8 365.531 1660.67 361.147 z"/>
<path transform="translate(0,0)" fill="rgb(223,238,244)" d="M 1686.59 381.207 C 1687.66 381.505 1690.24 382.3 1690.31 383.014 C 1691.97 398.43 1692.22 452.023 1691.64 464.713 C 1689.07 464.373 1688.98 464.325 1686.75 463.029 C 1685.33 458.568 1685.66 387.81 1686.59 381.207 z"/>
<path transform="translate(0,0)" fill="rgb(223,238,244)" d="M 1714.57 384.21 C 1715.94 384.783 1716.59 385.269 1717.84 386.048 C 1720.25 392.698 1719.45 459.171 1718.68 469.283 C 1717.58 468.883 1714.81 467.861 1714.74 467.051 C 1713.39 453.031 1713.17 395.06 1714.57 384.21 z"/>
<path transform="translate(0,0)" fill="rgb(31,74,152)" d="M 1788.26 369.316 C 1790.31 368.835 1791.65 369.101 1793.73 369.287 C 1791.05 371.846 1742.41 381.382 1737.14 382.035 C 1733.91 382.433 1732.53 382.398 1729.34 382.298 C 1733.75 379.455 1780.08 370.818 1788.26 369.316 z"/>
<path transform="translate(0,0)" fill="rgb(31,74,152)" d="M 1626.16 432.629 C 1628.95 440.332 1625.15 487.82 1622.75 497.307 C 1621.37 491.826 1624.83 438.229 1626.16 432.629 z"/>
<path transform="translate(0,0)" fill="rgb(31,74,152)" d="M 1597.22 411.635 L 1598.41 412.834 C 1599.16 430.047 1597.85 453.176 1597.05 470.536 C 1593.66 465.322 1596.25 420.263 1597.22 411.635 z"/>
<path transform="translate(0,0)" fill="rgb(251,146,178)" d="M 1018.47 475.916 C 1032.77 477.977 1049.99 481.416 1057.93 494.692 C 1067.25 506.255 1064.96 507.841 1069.53 518.565 C 1070.82 526.321 1073.09 524.856 1078.52 530.337 C 1092.11 544.055 1093.42 565.121 1075.87 576.316 L 1075.73 576.958 C 1082.55 600.513 1099.91 604.33 1102.58 633.189 C 1103.28 635.831 1114.06 651.221 1116.16 655.986 C 1136.1 701.076 1154.68 747.226 1173.97 792.581 C 1157.83 811.422 1134.09 823.436 1111.46 832.36 C 1076.33 849.197 1004 851.885 969.247 833.241 L 967.264 832.76 C 933.704 820.453 903.484 797.239 881.561 769.149 C 891.835 731.616 906.279 691.976 919.435 655.284 C 920.998 650.925 925.938 645.726 929.165 642.309 C 931.724 608.277 954.405 612.401 959.578 580.954 C 952.114 562.261 954.348 560.898 957.225 542.128 C 956.491 500.564 975.99 476.524 1018.47 475.916 z"/>
<path transform="translate(0,0)" fill="rgb(249,158,135)" d="M 1018.47 475.916 C 1032.77 477.977 1049.99 481.416 1057.93 494.692 C 1067.25 506.255 1064.96 507.841 1069.53 518.565 C 1070.82 526.321 1073.09 524.856 1078.52 530.337 C 1092.11 544.055 1093.42 565.121 1075.87 576.316 L 1075.73 576.958 C 1082.55 600.513 1099.91 604.33 1102.58 633.189 C 1098.91 634.206 1091.76 628.599 1085.05 626.725 C 1073.5 623.502 1066.08 623.052 1054.23 622.588 L 1054.87 626.337 C 1051.77 645.201 1029.32 648.03 1013.97 644.634 C 1000.5 641.656 992.027 635.293 984.586 623.935 C 980.245 624.779 975.304 625.871 970.995 626.55 C 953.391 629.607 943.95 631.165 929.165 642.309 C 931.724 608.277 954.405 612.401 959.578 580.954 C 952.114 562.261 954.348 560.898 957.225 542.128 C 956.491 500.564 975.99 476.524 1018.47 475.916 z"/>
<path transform="translate(0,0)" fill="rgb(9,9,9)" d="M 1018.47 475.916 C 1032.77 477.977 1049.99 481.416 1057.93 494.692 C 1067.25 506.255 1064.96 507.841 1069.53 518.565 C 1067.89 531.677 1074.38 530.75 1076.67 543.922 C 1072.56 545.357 1068.49 544.116 1064.52 542.983 C 1063.5 536.845 1062.54 530.696 1061.65 524.536 C 1060.16 523.733 1060.56 523.92 1059.15 523.537 C 1056.61 522.847 1053.72 513.315 1051.02 512.588 C 1050.15 516.06 1051.52 521.1 1052.23 524.813 C 1044.91 525.636 1039.24 526.152 1032.09 527.995 C 1028.27 532.3 1018.16 531.612 1012.85 530.971 L 1008.86 531.561 L 1006.56 527.726 L 1007.05 528.325 L 1005.31 525.883 L 1004.96 526.863 L 1002.82 526.984 C 1000.79 531.077 998.202 535.959 996.516 540.119 C 1003.84 550.716 1008.06 563.136 1005.09 576.083 C 1002.92 582.932 1001.76 584.998 995.811 589.091 C 996.265 604.01 999.213 615.731 984.586 623.935 C 980.245 624.779 975.304 625.871 970.995 626.55 C 953.391 629.607 943.95 631.165 929.165 642.309 C 931.724 608.277 954.405 612.401 959.578 580.954 C 952.114 562.261 954.348 560.898 957.225 542.128 C 956.491 500.564 975.99 476.524 1018.47 475.916 z"/>
<path transform="translate(0,0)" fill="rgb(9,9,9)" d="M 996.356 575.098 C 997.237 570.071 996.447 569.985 999.349 566.706 L 1001.34 566.199 C 1005.41 569.359 1004.94 571.122 1005.09 576.083 C 1002.92 582.932 1001.76 584.998 995.811 589.091 C 996.265 604.01 999.213 615.731 984.586 623.935 C 980.245 624.779 975.304 625.871 970.995 626.55 C 953.391 629.607 943.95 631.165 929.165 642.309 C 931.724 608.277 954.405 612.401 959.578 580.954 C 963.085 584.854 964.723 586.957 969.082 589.785 C 984.69 591.167 991.278 591.558 996.356 575.098 z"/>
<path transform="translate(0,0)" fill="rgb(251,146,178)" d="M 967.69 529.682 C 967.788 532.292 967.853 533.429 968.374 535.982 C 970.562 538.098 969.471 537.665 972.282 537.693 C 977.205 533.612 976.784 534.397 977.511 527.61 C 977.692 530.343 977.447 533.853 978.732 535.826 C 993.187 532.542 987.209 536.43 996.516 540.119 C 1003.84 550.716 1008.06 563.136 1005.09 576.083 C 1004.94 571.122 1005.41 569.359 1001.34 566.199 L 999.349 566.706 C 996.447 569.985 997.237 570.071 996.356 575.098 C 991.278 591.558 984.69 591.167 969.082 589.785 C 964.723 586.957 963.085 584.854 959.578 580.954 C 952.114 562.261 954.348 560.898 957.225 542.128 L 958.679 543.819 C 961.237 542.953 961.884 542.29 964.1 540.667 C 968.041 537.487 967.358 534.574 967.69 529.682 z"/>
<path transform="translate(0,0)" fill="rgb(224,60,76)" d="M 967.69 529.682 C 967.788 532.292 967.853 533.429 968.374 535.982 C 970.562 538.098 969.471 537.665 972.282 537.693 C 977.205 533.612 976.784 534.397 977.511 527.61 C 977.692 530.343 977.447 533.853 978.732 535.826 C 993.187 532.542 987.209 536.43 996.516 540.119 C 1003.84 550.716 1008.06 563.136 1005.09 576.083 C 1004.94 571.122 1005.41 569.359 1001.34 566.199 L 999.349 566.706 C 996.447 569.985 997.237 570.071 996.356 575.098 C 991.278 591.558 984.69 591.167 969.082 589.785 C 979.856 587.783 984.501 582.835 985.521 571.462 C 986.337 562.36 982.673 552.545 976.638 545.784 C 972.201 540.813 970.637 540.908 964.1 540.667 C 968.041 537.487 967.358 534.574 967.69 529.682 z"/>
<path transform="translate(0,0)" fill="rgb(38,24,23)" d="M 978.732 535.826 C 993.187 532.542 987.209 536.43 996.516 540.119 C 1003.84 550.716 1008.06 563.136 1005.09 576.083 C 1004.94 571.122 1005.41 569.359 1001.34 566.199 L 999.349 566.706 C 996.447 569.985 997.237 570.071 996.356 575.098 C 994.926 558.831 996.045 544.65 978.732 535.826 z"/>
<path transform="translate(0,0)" fill="rgb(9,9,9)" d="M 957.225 542.128 C 956.491 500.564 975.99 476.524 1018.47 475.916 L 1019.04 477.423 C 1010.92 478.838 1005.56 479.963 997.812 483.237 L 1002.02 488.601 C 985.092 499.708 979.682 507.297 977.511 527.61 C 976.784 534.397 977.205 533.612 972.282 537.693 C 969.471 537.665 970.562 538.098 968.374 535.982 C 967.853 533.429 967.788 532.292 967.69 529.682 C 967.358 534.574 968.041 537.487 964.1 540.667 C 961.884 542.29 961.237 542.953 958.679 543.819 L 957.225 542.128 z"/>
<path transform="translate(0,0)" fill="rgb(251,146,178)" d="M 997.812 483.237 L 1002.02 488.601 C 985.092 499.708 979.682 507.297 977.511 527.61 C 976.784 534.397 977.205 533.612 972.282 537.693 C 969.471 537.665 970.562 538.098 968.374 535.982 C 967.853 533.429 967.788 532.292 967.69 529.682 C 968.156 507.92 979.052 493.007 997.812 483.237 z"/>
<path transform="translate(0,0)" fill="rgb(251,146,178)" d="M 1018.47 475.916 C 1032.77 477.977 1049.99 481.416 1057.93 494.692 C 1037.46 479.974 1025.78 478.891 1002.02 488.601 L 997.812 483.237 C 1005.56 479.963 1010.92 478.838 1019.04 477.423 L 1018.47 475.916 z"/>
<path transform="translate(0,0)" fill="rgb(216,132,114)" d="M 1025.87 529.362 C 1025.95 521.812 1026.13 516.915 1027 509.428 C 1029.29 515.876 1029.65 521.869 1032.09 527.995 C 1028.27 532.3 1018.16 531.612 1012.85 530.971 C 1015.69 530.179 1022.61 529.682 1025.87 529.362 z"/>
<path transform="translate(0,0)" fill="rgb(216,132,114)" d="M 1002.82 526.984 C 1003.97 523.302 1006.02 514.456 1008.71 512.703 C 1011.49 517.466 1009.64 526.024 1008.86 531.561 L 1006.56 527.726 L 1007.05 528.325 L 1005.31 525.883 L 1004.96 526.863 L 1002.82 526.984 z"/>
<path transform="translate(0,0)" fill="rgb(9,9,9)" d="M 1062.88 576.041 L 1066.64 578.163 C 1072.28 575.904 1071.05 575.39 1075.73 576.958 C 1082.55 600.513 1099.91 604.33 1102.58 633.189 C 1098.91 634.206 1091.76 628.599 1085.05 626.725 C 1073.5 623.502 1066.08 623.052 1054.23 622.588 C 1049.13 620.138 1047.62 616.29 1045.46 611.391 C 1043.77 605.622 1043.43 604.258 1043.24 598.304 C 1054.45 593.63 1059.14 587.192 1062.88 576.041 z"/>
<path transform="translate(0,0)" fill="rgb(224,60,76)" d="M 1069.53 518.565 C 1070.82 526.321 1073.09 524.856 1078.52 530.337 C 1092.11 544.055 1093.42 565.121 1075.87 576.316 C 1075.62 575.346 1077.13 549.614 1076.67 543.922 C 1074.38 530.75 1067.89 531.677 1069.53 518.565 z"/>
<path transform="translate(0,0)" fill="rgb(45,43,44)" d="M 1064.52 542.983 C 1068.49 544.116 1072.56 545.357 1076.67 543.922 C 1077.13 549.614 1075.62 575.346 1075.87 576.316 L 1075.73 576.958 C 1071.05 575.39 1072.28 575.904 1066.64 578.163 L 1062.88 576.041 C 1066.17 564.747 1065.26 554.473 1064.52 542.983 z"/>
<path transform="translate(0,0)" fill="rgb(216,132,114)" d="M 1012.97 598.564 C 1023.29 600.808 1033.02 600.378 1043.24 598.304 C 1043.43 604.258 1043.77 605.622 1045.46 611.391 C 1029.33 610.742 1025.27 608.305 1012.97 598.564 z"/>
<path transform="translate(0,0)" fill="rgb(253,254,254)" d="M 1028.61 570.451 C 1034.33 570.085 1040.84 570.105 1046.63 569.987 C 1044.64 573.104 1042.4 575.839 1040.12 578.74 C 1035.11 579.715 1025.42 578.234 1026.09 571.651 L 1028.61 570.451 z"/>
<path transform="translate(0,0)" fill="rgb(38,24,23)" d="M 1021.86 533.911 C 1023.87 534.191 1023.73 534.132 1025.25 535.476 C 1023.63 537.948 1018.4 539.696 1015.42 540.985 C 1014.3 541.672 1014.38 541.435 1012.88 541.574 L 1012.27 540.141 C 1014.15 535.638 1017.57 535.009 1021.86 533.911 z"/>
<path transform="translate(0,0)" fill="rgb(73,38,32)" d="M 1036.25 546.508 C 1039.83 548.671 1043.72 555.566 1043.84 559.911 C 1042.2 562.767 1042.24 562.002 1038.29 563.105 C 1037.42 562.647 1037.16 562.181 1036.43 561.411 L 1040.98 559.67 C 1041.17 555.667 1037.21 554.555 1036.25 546.508 z"/>
<path transform="translate(0,0)" fill="rgb(38,24,23)" d="M 1044.95 531.39 C 1048.73 530.787 1053.77 529.986 1056.98 532.171 L 1057.17 533.642 C 1053.44 533.965 1047.54 535.044 1044.68 533.146 L 1044.95 531.39 z"/>
<path transform="translate(0,0)" fill="rgb(246,177,200)" d="M 970.995 626.55 C 975.304 625.871 980.245 624.779 984.586 623.935 C 992.027 635.293 1000.5 641.656 1013.97 644.634 C 1029.32 648.03 1051.77 645.201 1054.87 626.337 C 1056.39 625.695 1057.67 625.491 1059.27 625.116 C 1070.3 630.668 1050.02 676.133 1045.96 685.244 C 1010.65 665.541 998.563 655.75 970.995 626.55 z"/>
<path transform="translate(0,0)" fill="rgb(98,53,73)" d="M 968.462 755.454 C 984.33 745.211 1003.73 736.519 1019.84 726.457 C 1029.78 745.678 1040.14 764.684 1050.89 783.462 L 996.819 816.732 C 988.865 821.581 977.136 829.185 969.247 833.241 L 967.264 832.76 C 970.752 829.853 988.397 819.569 993.026 816.752 C 1011.61 805.609 1030.04 794.214 1048.32 782.571 L 1019.12 729.128 C 1010.55 734.842 978.563 752.17 969.084 757.102 L 968.462 755.454 z"/>
<path transform="translate(0,0)" fill="rgb(98,53,73)" d="M 1107.63 681.314 C 1114.47 692.653 1121.64 717.28 1120.48 731.159 C 1117.71 763.999 1114.67 798.607 1111.67 831.572 C 1111.6 831.835 1111.53 832.097 1111.46 832.36 C 1107.83 801.576 1119.99 755.05 1118.71 723.062 C 1118.26 711.998 1106.38 687.385 1107.63 681.314 z"/>
<path transform="translate(0,0)" fill="rgb(98,53,73)" d="M 957.352 761.089 C 959.673 753.566 972.023 714.885 975.343 710.403 C 976.757 714.295 960.449 754.05 960.291 758.781 C 962.42 759.091 966.301 756.591 968.462 755.454 L 969.084 757.102 C 960.277 761.422 931.692 778.802 924.507 779.764 C 928.619 776.275 950.842 764.88 957.352 761.089 z"/>
<path transform="translate(0,0)" fill="rgb(45,43,44)" d="M 1056.36 716.24 C 1059.95 674.605 1050.42 681.113 1097.79 681.152 C 1098.45 681.153 1100.04 681.686 1100.72 681.916 C 1104.69 688.474 1098.47 750.805 1096.5 759.913 C 1086.87 760.143 1072.02 760.848 1062.81 759.956 C 1058.77 758.759 1053.36 761.567 1049.41 763.183 C 1055.53 759.531 1061.8 757.565 1068.11 754.378 C 1073.7 751.558 1079.21 744.985 1085.83 744.881 L 1085.88 744.735 L 1084.52 744.358 L 1084.43 745.106 C 1081.22 745.725 1073.05 746.239 1070.12 744.778 C 1073.24 740.09 1091.13 737.378 1091.08 731.072 C 1085.92 728.291 1078.21 738.162 1070.59 736.999 C 1067.92 734.893 1068.41 735.93 1068.07 733.172 C 1071.19 729.734 1087.56 726.52 1090.82 722.624 L 1089.73 720.952 C 1082.62 718.997 1073.87 727.83 1065.99 728.491 C 1063.14 727.314 1064.09 728.166 1062.59 725.061 C 1064.25 722.526 1066.52 723.159 1070.4 721.521 L 1068.98 719.48 C 1060.99 715.955 1063.88 721.799 1056.19 720.915 L 1055.32 719.006 L 1056.36 716.24 z"/>
<path transform="translate(0,0)" fill="rgb(216,132,114)" d="M 1056.36 716.24 L 1057.37 718.42 C 1070.77 717.926 1079.21 702.823 1084.7 718.025 C 1085.05 718.992 1089.17 716.639 1092.47 719.928 C 1092.38 724.155 1092.52 732.103 1091.4 735.831 L 1087.91 738.518 C 1087.63 743.741 1091.73 742.848 1087.7 746.851 C 1081.84 752.67 1068.93 755.679 1062.81 759.956 C 1058.77 758.759 1053.36 761.567 1049.41 763.183 C 1055.53 759.531 1061.8 757.565 1068.11 754.378 C 1073.7 751.558 1079.21 744.985 1085.83 744.881 L 1085.88 744.735 L 1084.52 744.358 L 1084.43 745.106 C 1081.22 745.725 1073.05 746.239 1070.12 744.778 C 1073.24 740.09 1091.13 737.378 1091.08 731.072 C 1085.92 728.291 1078.21 738.162 1070.59 736.999 C 1067.92 734.893 1068.41 735.93 1068.07 733.172 C 1071.19 729.734 1087.56 726.52 1090.82 722.624 L 1089.73 720.952 C 1082.62 718.997 1073.87 727.83 1065.99 728.491 C 1063.14 727.314 1064.09 728.166 1062.59 725.061 C 1064.25 722.526 1066.52 723.159 1070.4 721.521 L 1068.98 719.48 C 1060.99 715.955 1063.88 721.799 1056.19 720.915 L 1055.32 719.006 L 1056.36 716.24 z"/>
<path transform="translate(0,0)" fill="rgb(55,124,253)" d="M 272.665 806.778 C 271.015 796.453 268.545 785.315 268.361 774.853 C 267.832 771.094 269.668 755.901 274.813 755.097 C 287.845 753.062 284.796 750.769 291.537 741.204 C 294.694 736.725 303.158 739.9 307.606 740.645 C 309.56 740.972 318.046 732.559 320.724 732.225 C 331.13 728.192 333.077 737.522 336.201 736.192 C 340.338 734.43 349.857 728.168 355.131 728.947 C 367.846 730.822 362.12 744.251 366.054 748.991 C 369.338 749.326 371.609 749.269 374.367 751.156 C 379.321 759.397 364.803 770.225 359.136 775.247 C 358.836 801.781 369.913 838.158 344.143 856.045 C 355.758 863.909 366.616 872.804 367.492 888.061 C 380.458 891.724 394.855 894.841 400.667 908.534 C 417.04 947.111 435.817 987.568 450.004 1026.88 C 440.134 1036.2 420.542 1052.99 407.726 1057.92 L 406.851 1058.23 C 397.357 1064.73 389.287 1066.07 380.242 1070.55 L 376.519 1071.49 C 349.55 1080.71 320.755 1083.29 292.576 1079.01 C 289.763 1078.56 281.67 1077.18 279.406 1076.21 L 277.904 1075.94 C 261.366 1072.47 249.086 1067.48 234.005 1060.27 C 214.63 1050.22 186.313 1028.83 175.056 1010.21 C 180.325 990.057 188.814 969.61 194.103 949.313 C 199.937 926.923 206.076 904.466 231.306 897.538 C 232.259 897.277 232.744 896.144 233.372 895.265 L 233.297 895.057 C 232.773 894.767 232.253 894.471 231.736 894.17 C 225.883 890.745 226.496 889.184 224.602 881.877 C 226.371 872.355 230.517 863.434 236.654 855.942 C 251.093 838.384 266.417 840.903 285.591 838.92 C 285.324 838.468 284.225 837.374 283.801 836.925 C 274.789 838.292 271.511 825.39 267.907 818.063 C 268.532 814.182 270.829 810.326 272.665 806.778 z"/>
<path transform="translate(0,0)" fill="rgb(249,158,135)" d="M 272.665 806.778 C 271.015 796.453 268.545 785.315 268.361 774.853 C 267.832 771.094 269.668 755.901 274.813 755.097 C 287.845 753.062 284.796 750.769 291.537 741.204 C 294.694 736.725 303.158 739.9 307.606 740.645 C 309.56 740.972 318.046 732.559 320.724 732.225 C 331.13 728.192 333.077 737.522 336.201 736.192 C 340.338 734.43 349.857 728.168 355.131 728.947 C 367.846 730.822 362.12 744.251 366.054 748.991 C 369.338 749.326 371.609 749.269 374.367 751.156 C 379.321 759.397 364.803 770.225 359.136 775.247 C 358.836 801.781 369.913 838.158 344.143 856.045 L 336.694 858.027 L 335.731 858.113 C 335.53 863.114 336.526 867.874 337.348 872.807 L 342.294 882.398 C 336.464 890.848 334.308 894.168 327.525 902.278 C 312.635 893.405 297.814 884.418 283.062 875.318 C 285.553 867.618 285.116 856.682 285.085 848.51 C 285.121 845.592 285.425 841.898 285.591 838.92 C 285.324 838.468 284.225 837.374 283.801 836.925 C 274.789 838.292 271.511 825.39 267.907 818.063 C 268.532 814.182 270.829 810.326 272.665 806.778 z"/>
<path transform="translate(0,0)" fill="rgb(251,146,178)" d="M 272.665 806.778 C 271.015 796.453 268.545 785.315 268.361 774.853 C 267.832 771.094 269.668 755.901 274.813 755.097 C 287.845 753.062 284.796 750.769 291.537 741.204 C 294.694 736.725 303.158 739.9 307.606 740.645 C 309.56 740.972 318.046 732.559 320.724 732.225 C 331.13 728.192 333.077 737.522 336.201 736.192 C 340.338 734.43 349.857 728.168 355.131 728.947 C 367.846 730.822 362.12 744.251 366.054 748.991 C 369.338 749.326 371.609 749.269 374.367 751.156 C 379.321 759.397 364.803 770.225 359.136 775.247 C 340.979 774.413 318.852 776.583 300.424 776.934 C 288.674 777.158 296.963 813.178 282.938 815.129 C 280.461 813.02 279.734 811.949 276.539 811.806 C 272.149 813.702 271.534 815.144 267.907 818.063 C 268.532 814.182 270.829 810.326 272.665 806.778 z"/>
<path transform="translate(0,0)" fill="rgb(216,132,114)" d="M 299.694 853.625 C 311.568 857.921 323.065 861.042 335.731 858.113 C 335.53 863.114 336.526 867.874 337.348 872.807 C 318.981 870.687 312.865 866.214 299.694 853.625 z"/>
<path transform="translate(0,0)" fill="rgb(216,132,114)" d="M 267.907 818.063 C 271.534 815.144 272.149 813.702 276.539 811.806 C 279.734 811.949 280.461 813.02 282.938 815.129 C 281.434 817.934 280.646 818.894 281.16 822.047 C 286.89 831.37 286.377 827.946 283.801 836.925 C 274.789 838.292 271.511 825.39 267.907 818.063 z"/>
<path transform="translate(0,0)" fill="rgb(96,42,34)" d="M 335.896 806.675 C 339.742 810.042 343.06 818.801 340.126 823.877 L 335.46 825.107 C 334.305 823.901 334.746 824.601 334.475 822.81 L 333.637 822.639 C 343.001 821.489 332.988 814.057 335.896 806.675 z"/>
<path transform="translate(0,0)" fill="rgb(73,38,32)" d="M 318.939 791.989 C 319.774 792.207 321.987 793.153 322.912 793.518 L 323.127 794.99 C 320.497 797.201 316.558 797.878 313.164 798.767 C 311.873 799.703 312.285 799.362 310.439 799.558 L 309.576 798.05 C 311.625 793.254 314.178 793.219 318.939 791.989 z"/>
<path transform="translate(0,0)" fill="rgb(73,38,32)" d="M 341.897 791.282 C 349.128 791.212 353.209 789.729 357.417 796.183 C 351.355 795.999 343.525 797.624 341.897 791.282 z"/>
<path transform="translate(0,0)" fill="rgb(73,38,32)" d="M 319.353 828.906 C 329.31 837.114 331.471 831.877 336.019 835.526 C 329.369 836.793 321.749 836.477 319.353 828.906 z"/>
<path transform="translate(0,0)" fill="rgb(55,124,253)" d="M 280.957 1064.31 C 285.626 1061.78 363.138 1063.61 375.654 1062.48 L 376.519 1071.49 C 349.55 1080.71 320.755 1083.29 292.576 1079.01 C 289.763 1078.56 281.67 1077.18 279.406 1076.21 C 281.535 1072.3 281.036 1068.77 280.957 1064.31 z"/>
<path transform="translate(0,0)" fill="rgb(31,74,152)" d="M 283.062 875.318 C 276.532 870.783 254.742 860.919 259.026 852.635 C 265.972 847.851 276.536 848.72 285.085 848.51 C 285.116 856.682 285.553 867.618 283.062 875.318 z"/>
<path transform="translate(0,0)" fill="url(#Gradient1)" d="M 279.803 1063.83 C 280.572 1062.14 280.261 1062.73 281.7 1061.38 C 292.693 1059.55 314.316 1059.84 325.983 1059.84 C 341.566 1059.83 360.727 1059.15 376.08 1060.15 L 375.654 1062.48 C 363.138 1063.61 285.626 1061.78 280.957 1064.31 L 279.803 1063.83 z"/>
<path transform="translate(0,0)" fill="rgb(31,74,152)" d="M 406.851 1058.23 C 406.418 1057.72 405.902 1057.11 405.304 1056.4 C 405.193 1034.77 399.666 984.901 401.198 965.671 C 403.735 968.156 407.374 1048.49 407.726 1057.92 L 406.851 1058.23 z"/>
<path transform="translate(0,0)" fill="rgb(11,46,110)" d="M 234.005 1060.27 C 235.598 1052.11 245.487 1024.22 248.535 1014.95 C 252.578 1002.65 261.143 971.336 266.137 962.116 C 264.804 973.071 239.609 1055.59 234.431 1059.95 C 234.294 1060.06 234.147 1060.17 234.005 1060.27 z"/>
<path transform="translate(0,0)" fill="rgb(31,74,152)" d="M 335.731 858.113 L 336.694 858.027 C 339.922 862.629 346.596 865.578 350.983 870.458 C 348.638 874.606 346.149 879.549 342.294 882.398 L 337.348 872.807 C 336.526 867.874 335.53 863.114 335.731 858.113 z"/>
<path transform="translate(0,0)" fill="rgb(31,74,152)" d="M 367.492 888.061 C 363.259 893.427 349.222 903.903 342.528 906.084 C 344.767 902.511 363.005 889.365 367.492 888.061 z"/>
<path transform="translate(0,0)" fill="rgb(31,74,152)" d="M 376.08 1060.15 C 380.953 1061.9 380.005 1065.6 380.242 1070.55 L 376.519 1071.49 L 375.654 1062.48 L 376.08 1060.15 z"/>
<path transform="translate(0,0)" fill="rgb(31,74,152)" d="M 279.803 1063.83 L 280.957 1064.31 C 281.036 1068.77 281.535 1072.3 279.406 1076.21 L 277.904 1075.94 C 278.42 1071.75 279.06 1067.98 279.803 1063.83 z"/>
<path transform="translate(0,0)" fill="rgb(223,238,244)" d="M 338.915 908.715 L 341.825 910.191 C 344.039 915.33 343.717 983.816 342.575 991.791 C 339.286 990.837 340.084 991.54 337.958 989.305 C 337.241 980.139 336.981 914.099 338.915 908.715 z"/>
<path transform="translate(0,0)" fill="rgb(223,238,244)" d="M 310.692 911.201 L 314.024 912.238 C 315.924 914.772 315.175 985.708 314.481 993.773 C 311.305 992.854 312.064 993.557 310.22 991.345 C 309.46 977.322 310.03 960.713 309.961 946.514 C 309.918 937.557 309.466 919.519 310.692 911.201 z"/>
<path transform="translate(0,0)" fill="rgb(31,74,152)" d="M 233.812 894.423 C 242.201 893.02 296.172 904.615 301.846 909.778 C 296.632 909.567 237.856 896.458 233.812 894.423 z"/>
<path transform="translate(0,0)" fill="rgb(182,188,238)" d="M 490.688 965.892 C 514.767 968.627 545.214 970.11 569.682 971.96 L 745.935 984.946 L 1223.5 1021.91 C 1291.48 1027.22 1359.78 1031.21 1427.77 1037.3 C 1428.46 1042.28 1432.49 1055.25 1430.12 1058.75 L 1426.76 1058.42 L 802.778 1010.85 C 696.684 1002.99 586.92 992.419 480.967 986.635 C 484.452 979.884 487.546 972.817 490.688 965.892 z"/>
<path transform="translate(0,0)" fill="rgb(9,9,9)" d="M 1554.75 974.454 C 1555.33 960.966 1561.34 889.856 1564.48 880.337 C 1566.88 873.235 1571.01 866.842 1576.5 861.732 C 1595.96 843.54 1635.46 842.352 1653.76 863.238 C 1658.71 868.971 1662.37 875.711 1664.47 882.994 C 1670 901.609 1671.33 954.811 1673.11 976.31 C 1661.61 979.11 1656.47 979.317 1644.61 979.737 C 1646.87 982.035 1650.03 984.731 1652.47 986.941 C 1651.54 988.582 1650.56 990.195 1649.53 991.779 C 1636.68 1011.69 1593.61 1013.53 1584.52 989.468 C 1583.22 986.032 1587.86 982.747 1590.14 979.661 L 1590.59 979.048 C 1576.63 977.911 1568.29 976.608 1554.75 974.454 z"/>
<path transform="translate(0,0)" fill="rgb(249,158,135)" d="M 1613.24 879.455 C 1613.72 883.165 1614.95 897.11 1616 899.121 C 1619.4 900.608 1619.87 900.776 1623.56 900.958 C 1629.21 898.119 1628.04 889.453 1628.59 883.303 C 1631.31 891.896 1635.2 906.497 1637.96 914.121 C 1638.92 914.392 1639.16 914.623 1639.99 914.461 C 1654.56 905.178 1661.48 924.094 1652.89 933.577 L 1652.21 933.844 C 1650.89 935.345 1650.92 935.657 1649.18 936.474 C 1643.71 936.839 1642.59 935.973 1638.28 938.472 C 1636.28 941.256 1636.11 945.767 1635.75 949.266 L 1633.95 950.288 L 1633.15 950.533 C 1629.75 959.101 1627.59 968.815 1623.72 978.761 L 1644.61 979.737 C 1646.87 982.035 1650.03 984.731 1652.47 986.941 C 1651.54 988.582 1650.56 990.195 1649.53 991.779 C 1636.68 1011.69 1593.61 1013.53 1584.52 989.468 C 1583.22 986.032 1587.86 982.747 1590.14 979.661 L 1590.59 979.048 L 1592.55 974.111 C 1592.88 971.077 1593.95 966.128 1594.54 962.972 C 1567.75 956.568 1569.02 923.384 1569.82 902.086 L 1572.84 904.163 C 1576.35 904.632 1580.54 903.59 1583.95 902.795 L 1584.84 901.077 L 1585.91 897.34 C 1592.9 896.767 1603.03 898.163 1610.06 899.337 C 1610.95 892.734 1611.72 885.927 1613.24 879.455 z"/>
<path transform="translate(0,0)" fill="rgb(216,132,114)" d="M 1639.99 914.461 C 1654.56 905.178 1661.48 924.094 1652.89 933.577 L 1652.21 933.844 C 1651.04 932.539 1651.12 932.798 1649.46 931.993 C 1647.73 932.976 1647.62 933.13 1645.61 933.609 L 1644.14 930.661 C 1643.29 924.945 1637.7 924.417 1641.56 918.878 C 1645.2 917.037 1647.92 917.286 1652 917.192 L 1651.18 915.776 C 1647.71 913.79 1645.27 915.073 1640.61 914.539 L 1639.99 914.461 z"/>
<path transform="translate(0,0)" fill="rgb(216,132,114)" d="M 1624.59 958.586 C 1616.85 968.736 1610.42 971.779 1597.79 973.466 C 1596.05 973.697 1594.3 973.912 1592.55 974.111 C 1592.88 971.077 1593.95 966.128 1594.54 962.972 C 1607.18 965.19 1613.33 963.743 1624.59 958.586 z"/>
<path transform="translate(0,0)" fill="rgb(247,211,194)" d="M 1644.14 930.661 L 1645.61 933.609 C 1647.62 933.13 1647.73 932.976 1649.46 931.993 C 1651.12 932.798 1651.04 932.539 1652.21 933.844 C 1650.89 935.345 1650.92 935.657 1649.18 936.474 C 1643.71 936.839 1642.59 935.973 1638.28 938.472 C 1636.28 941.256 1636.11 945.767 1635.75 949.266 L 1633.95 950.288 C 1633.72 949.65 1633.5 949.009 1633.28 948.365 C 1629.56 937.016 1633.33 932.971 1644.14 930.661 z"/>
<path transform="translate(0,0)" fill="rgb(38,24,23)" d="M 1591.49 914.712 C 1592.79 920.245 1588.42 921.87 1589.26 927.236 C 1590.66 927.992 1591.87 928.591 1593.29 929.274 L 1593.39 931.355 C 1589.28 931.143 1588.65 931.398 1586.44 928.405 C 1585.79 923.718 1589.14 918.763 1591.49 914.712 z"/>
<path transform="translate(0,0)" fill="rgb(38,24,23)" d="M 1603.26 902.374 C 1609.21 901.468 1613.8 901.549 1617.5 906.542 C 1612.9 907.049 1606.46 905.752 1603.26 902.374 z"/>
<path transform="translate(0,0)" fill="rgb(38,24,23)" d="M 1604.87 938.379 L 1605.76 939.384 C 1602.22 942.805 1596.08 942.229 1591.22 942.259 C 1591.01 940.714 1590.98 941.334 1591.64 939.81 C 1597.14 939.842 1599.71 940.108 1604.87 938.379 z"/>
<path transform="translate(0,0)" fill="rgb(9,9,9)" d="M 1635.75 949.266 C 1636.11 945.767 1636.28 941.256 1638.28 938.472 C 1642.59 935.973 1643.71 936.839 1649.18 936.474 C 1651.21 939.399 1652.51 941.43 1651.63 945.517 C 1651.1 948.024 1649.49 950.169 1647.23 951.389 C 1643.67 953.299 1638.51 952.096 1635.75 949.266 z"/>
<path transform="translate(0,0)" fill="rgb(216,132,114)" d="M 1581.46 873.971 C 1580.38 880.479 1578.21 888.406 1579.43 894.418 C 1581.76 897.471 1581.06 896.553 1585.91 897.34 L 1584.84 901.077 L 1583.95 902.795 C 1580.54 903.59 1576.35 904.632 1572.84 904.163 L 1569.82 902.086 C 1571.62 892.284 1576.03 882.294 1581.46 873.971 z"/>
<path transform="translate(0,0)" fill="rgb(9,9,9)" d="M 1572.84 904.163 C 1574.9 897.655 1579.19 899.577 1584.84 901.077 L 1583.95 902.795 C 1580.54 903.59 1576.35 904.632 1572.84 904.163 z"/>
<path transform="translate(0,0)" fill="rgb(178,176,177)" d="M 1652.21 933.844 L 1652.89 933.577 C 1663.32 951.17 1648.12 961.419 1633.15 950.533 L 1633.95 950.288 L 1635.75 949.266 C 1638.51 952.096 1643.67 953.299 1647.23 951.389 C 1649.49 950.169 1651.1 948.024 1651.63 945.517 C 1652.51 941.43 1651.21 939.399 1649.18 936.474 C 1650.92 935.657 1650.89 935.345 1652.21 933.844 z"/>
<path transform="translate(0,0)" fill="rgb(182,188,238)" d="M 894.171 169.634 C 908.258 171.463 937.382 179.052 951.971 182.442 L 1069.03 209.823 L 1502.5 311.59 L 1497.78 329.761 C 1497.38 331.523 1497.79 330.7 1496.09 332.038 C 1481.06 329.301 1462.86 324.229 1447.62 320.732 L 1339.11 295.553 L 1040.91 225.551 L 945.073 203.14 C 928.93 199.412 908.462 194.034 892.511 191.601 C 892.809 184.544 893.592 176.738 894.171 169.634 z"/>
<path transform="translate(0,0)" fill="rgb(182,188,238)" d="M 852.116 727.324 C 853.928 726.736 853.195 726.899 855.269 727.279 C 857.909 730.179 861.538 739.787 863.473 743.997 C 847.896 752.048 827.734 758.773 810.975 764.871 L 737.593 791.577 C 663.221 818.676 584.762 848.515 509.977 873.778 L 505.384 875.278 C 501.121 872.494 500.816 861.463 499.249 854.797 C 572.236 829.012 645.038 802.707 717.65 775.883 L 793.199 748.333 C 812.955 741.014 831.874 733.28 852.116 727.324 z"/>
<path transform="translate(0,0)" fill="rgb(157,219,241)" d="M 1504.75 457.925 L 1506.37 457.863 C 1508.99 459.257 1514.94 472.306 1516.78 475.964 C 1506.46 481.285 1490.35 487.654 1479.35 492.377 L 1399.06 526.268 C 1348.31 547.671 1290.2 574.135 1239.28 593.244 C 1237.77 593.752 1237.21 593.712 1235.64 593.884 C 1232.35 590.837 1229.99 580.492 1228.63 575.714 C 1318.4 534.89 1413.72 497.279 1504.75 457.925 z"/>
<path transform="translate(0,0)" fill="rgb(157,219,241)" d="M 1209.22 753.648 C 1220.43 756.831 1288.56 804.294 1301.94 813.146 C 1351.52 846.025 1401.3 878.605 1451.28 910.884 C 1447.45 917.911 1444.7 923.272 1441.48 930.584 C 1424.55 920.565 1404.81 906.907 1388.24 895.972 L 1292.06 832.243 L 1234.23 794.038 C 1223.03 786.567 1208.07 777.139 1198.34 768.373 L 1209.22 753.648 z"/>
<path transform="translate(0,0)" fill="rgb(251,197,74)" d="M 1411.26 774.085 C 1432.75 772.788 1457.17 774.261 1478.9 774.039 C 1489.86 773.927 1494.98 779.429 1494.33 790.419 C 1493.63 802.047 1494.74 814.649 1493.9 826.3 C 1493.3 834.617 1489.08 835.341 1483.28 839.591 C 1481.31 842.653 1482.24 846.973 1482.58 850.749 L 1482.35 854.014 L 1480.82 854.332 C 1477.56 852.431 1467.81 842.326 1463.97 838.76 C 1448.18 838.513 1432.13 839.274 1416.68 838.766 C 1404.26 837.122 1404.22 820.112 1404.89 811.391 C 1406.01 796.666 1400.47 785.405 1411.26 774.085 z"/>
<path transform="translate(0,0)" fill="rgb(249,249,230)" d="M 1427.36 801.485 C 1429.8 799.941 1433.02 800.543 1434.74 802.865 C 1436.45 805.187 1436.08 808.44 1433.89 810.32 C 1432.33 811.662 1430.14 812.017 1428.23 811.24 C 1426.32 810.462 1425 808.682 1424.82 806.628 C 1424.64 804.573 1425.62 802.588 1427.36 801.485 z"/>
<path transform="translate(0,0)" fill="rgb(249,249,230)" d="M 1447.94 801.642 C 1450.67 800.628 1453.7 802.034 1454.69 804.773 C 1455.68 807.512 1454.25 810.534 1451.5 811.502 C 1448.79 812.459 1445.81 811.049 1444.83 808.342 C 1443.85 805.635 1445.24 802.644 1447.94 801.642 z"/>
<path transform="translate(0,0)" fill="rgb(249,249,230)" d="M 1468.41 801.563 C 1470.91 800.966 1473.45 802.383 1474.25 804.825 C 1475.06 807.266 1473.86 809.918 1471.5 810.927 C 1469.78 811.66 1467.8 811.363 1466.37 810.16 C 1464.94 808.956 1464.31 807.051 1464.74 805.234 C 1465.17 803.417 1466.59 801.997 1468.41 801.563 z"/>
<path transform="translate(0,0)" fill="rgb(251,146,178)" d="M 1154.44 390.228 C 1159.15 389.815 1164.18 389.329 1168.88 389.816 C 1179.81 390.984 1189.81 396.488 1196.65 405.095 C 1203.57 413.542 1206.81 424.414 1205.63 435.27 C 1202.9 459.738 1182.46 475.133 1158.24 472.358 C 1149.1 470.808 1140.64 480.141 1130.33 485.289 C 1132.48 479.48 1134.97 469.781 1136.76 463.564 C 1131.5 457.575 1127.85 452.857 1125.16 445.316 C 1121.3 434.472 1121.99 422.532 1127.06 412.201 C 1133.05 400.078 1142.2 394.417 1154.44 390.228 z"/>
<path transform="translate(0,0)" fill="rgb(253,254,254)" d="M 1146.56 435.997 C 1156.02 437.002 1178.48 433.933 1182.04 441.343 C 1181.83 444.727 1179.55 447.075 1177.47 449.781 C 1173.9 452.792 1170.52 454.621 1165.81 455.042 C 1161.28 455.468 1156.77 454.041 1153.32 451.087 C 1148.52 446.918 1146.92 442.091 1146.56 435.997 z"/>
<path transform="translate(0,0)" fill="rgb(253,254,254)" d="M 1175.51 409.749 C 1180.45 408.117 1185.77 410.807 1187.39 415.751 C 1189.01 420.695 1186.31 426.014 1181.36 427.62 C 1176.43 429.219 1171.13 426.528 1169.52 421.603 C 1167.91 416.677 1170.59 411.375 1175.51 409.749 z"/>
<path transform="translate(0,0)" fill="rgb(253,254,254)" d="M 1150.16 409.661 C 1154.95 409.183 1159.25 412.605 1159.86 417.38 C 1160.48 422.156 1157.18 426.55 1152.42 427.295 C 1149.22 427.795 1146.01 426.519 1144.02 423.963 C 1142.04 421.407 1141.6 417.974 1142.87 415.001 C 1144.15 412.027 1146.94 409.982 1150.16 409.661 z"/>
<path transform="translate(0,0)" fill="rgb(251,146,178)" d="M 459.545 679.281 C 472.101 678.216 484.762 682.665 493.536 691.758 C 501.036 699.495 505.14 709.905 504.936 720.678 C 504.57 737.715 493.892 752.036 478.316 758.475 C 469.001 762.325 460.97 761.393 451.168 761.01 C 444.79 764.667 437.252 769.767 430.95 773.801 C 432.533 766.646 433.757 759.644 436.826 752.992 C 421.078 735.754 415.11 716.678 429.999 695.187 C 436.778 685.403 447.954 680.954 459.545 679.281 z"/>
<path transform="translate(0,0)" fill="rgb(253,254,254)" d="M 471.362 695.708 C 473.497 697.703 474.626 703.935 475.332 706.939 C 478.322 709.653 478.131 708.858 482.892 709.531 C 480.443 715.173 476.11 710.616 472.592 724.731 C 472.429 725.092 471.958 725.32 471.543 725.622 L 471.463 725.002 C 470.582 718.249 470.759 715.859 464.772 712.168 C 461.709 710.28 469.017 707.166 469.766 704.569 C 470.621 701.603 470.964 698.802 471.362 695.708 z"/>
<path transform="translate(0,0)" fill="rgb(253,254,254)" d="M 452.193 717.618 C 454.967 727.575 454.302 723.363 461.88 729.603 C 453.543 732.087 454.787 732.32 452.601 740.436 L 451.521 740.527 C 450.123 735.846 449.116 733.755 446.956 729.33 C 446.111 729.237 444.385 729.103 443.638 728.944 C 444.471 728.32 445.272 727.692 446.026 726.974 L 446.28 728.028 C 447.028 725.81 450.777 720.276 452.193 717.618 z"/>
<path transform="translate(0,0)" fill="rgb(157,219,241)" d="M 1681.49 575.05 L 1703.21 574.973 C 1702.67 589.408 1697.44 619.546 1695.19 634.556 L 1674.56 769.558 C 1671.92 787.391 1666.75 815.404 1665.76 832.299 C 1658.71 830.148 1651.48 827.645 1644.2 826.734 L 1670.39 652.789 C 1672.29 640.655 1682.02 584.597 1681.49 575.05 z"/>
<path transform="translate(0,0)" fill="rgb(249,158,135)" d="M 1545.02 354.646 C 1542.43 345.537 1536.91 310.109 1540.07 302.1 C 1542.68 300.264 1543.31 301.165 1547.38 301.726 C 1548.03 298.493 1548.27 296 1550.25 293.318 C 1553.05 291.967 1552.78 292.597 1556.43 293.735 C 1558.31 291.738 1559.38 290.247 1560.98 288.074 C 1568.12 285.753 1565.26 291.959 1570.34 293.936 C 1571.35 294.326 1572.49 291.343 1576.84 292.428 C 1581.54 297.299 1580.37 314.965 1580.65 322.954 C 1583.8 319.46 1587.97 313.063 1592.63 316.527 C 1594.24 323.961 1585.45 345.409 1582.47 354.053 C 1569.99 354.372 1557.5 354.569 1545.02 354.646 z"/>
<path transform="translate(0,0)" fill="rgb(216,132,114)" d="M 1579.07 325.127 L 1579.46 326.442 C 1569.81 335.776 1564.78 334.635 1563.93 349.691 L 1562.08 347.84 C 1560.88 337.022 1570.83 329.99 1579.07 325.127 z"/>
<path transform="translate(0,0)" fill="rgb(216,132,114)" d="M 1559.34 298.676 C 1560.76 302.195 1561.15 316.299 1560.55 320.641 C 1557.62 316.297 1557.17 303.575 1559.34 298.676 z"/>
<path transform="translate(0,0)" fill="rgb(182,188,238)" d="M 1140.99 900.482 C 1153.73 897.283 1166.66 904.951 1169.96 917.66 C 1173.27 930.369 1165.7 943.364 1153.02 946.771 C 1148.36 948.024 1143.42 947.835 1138.87 946.229 C 1128.92 942.72 1122.44 933.105 1122.93 922.565 C 1123.42 912.026 1130.76 903.053 1140.99 900.482 z"/>
<path transform="translate(0,0)" fill="rgb(157,219,241)" d="M 1843.01 637.005 C 1844.05 637.074 1843.98 637.229 1845 637.784 C 1845.4 644.438 1836.05 688.848 1834.17 698.096 C 1828 693.976 1817.29 683.459 1811.45 678.034 C 1804.05 671.999 1794.8 664.001 1788.38 657.065 C 1797.34 652.655 1831.66 641.159 1843.01 637.005 z"/>
<path transform="translate(0,0)" fill="rgb(253,254,254)" d="M 1838.73 642.128 L 1840.02 642.325 C 1840.84 645.23 1832.57 683.916 1831.27 690.435 C 1825.57 685.776 1819.67 680.422 1814.1 675.532 C 1808.22 669.688 1801.67 663.805 1795.5 658.249 C 1808.78 653.806 1825.19 647.069 1838.73 642.128 z"/>
<path transform="translate(0,0)" fill="rgb(182,188,238)" d="M 984.289 337.558 C 990.513 340.975 1012.79 358.978 1020.92 364.568 C 1016.68 366.096 1011.01 368.727 1006.74 370.55 C 997.594 374.628 988.582 379.01 979.723 383.69 C 981.214 370.177 981.804 350.431 984.289 337.558 z"/>
<path transform="translate(0,0)" fill="rgb(253,254,254)" d="M 986.993 344.424 C 995.262 349.109 1007.21 358.298 1015.22 364.107 L 1004.37 368.901 C 997.157 371.845 990.548 375.112 983.544 378.52 C 984.754 367.148 985.57 355.778 986.993 344.424 z"/>
<path transform="translate(0,0)" fill="rgb(246,177,200)" d="M 1474.77 600.727 C 1491.54 610.296 1483.69 614.466 1488.93 627.456 C 1493.76 626.145 1492.07 624.858 1495.89 626.189 C 1499.48 632.172 1494.26 648.051 1487.13 649.683 L 1486.09 648.894 C 1491.28 640.884 1482.33 633.059 1478.32 624.662 L 1475.89 623.889 C 1470.27 641.226 1462.44 634.608 1471.69 653.309 C 1456.12 640.498 1453.98 635.935 1460.86 616.893 L 1464.55 628.089 C 1469.31 617.448 1474.11 612.58 1474.77 600.727 z"/>
<path transform="translate(0,0)" fill="rgb(182,188,238)" d="M 184.112 630.039 C 215.713 628.579 204.741 668 182.936 671.906 C 180.509 672.341 172.729 668.949 170.821 666.873 L 171.361 665.389 L 173.959 664.602 C 178.463 666.02 179.158 666.217 183.855 666.099 C 187.578 662.713 198.279 653.239 197.705 647.358 C 197.244 642.626 194.441 638.479 189.941 636.607 C 179.67 637.863 175.911 652.373 168.956 650.361 C 167.089 643.06 178.568 633.183 184.112 630.039 z"/>
<path transform="translate(0,0)" fill="rgb(246,177,200)" d="M 170.923 653.089 C 175.388 653.182 178.706 653.51 181.87 657.075 L 181.639 658.837 C 177.321 660.093 176.915 659.171 171.886 657.992 C 165.28 663.369 146.165 681.759 163.175 688.602 C 172.799 692.473 176.338 677.557 185.304 674.512 C 185.592 681.961 178.598 692.309 171.191 694.9 C 167.059 696.308 162.53 695.964 158.658 693.946 C 140.475 684.676 155.55 657.478 170.923 653.089 z"/>
<path transform="translate(0,0)" fill="rgb(182,188,238)" d="M 642.126 498.677 C 645.779 497.236 649.927 497.893 652.956 500.393 C 655.985 502.893 657.417 506.841 656.696 510.702 C 655.974 514.562 653.212 517.726 649.484 518.963 C 643.937 520.804 637.931 517.894 635.938 512.399 C 633.945 506.904 636.688 500.821 642.126 498.677 z"/>
<path transform="translate(0,0)" fill="rgb(253,254,254)" d="M 644.712 501.341 C 648.796 500.562 652.776 503.113 653.774 507.15 C 654.772 511.186 652.438 515.298 648.461 516.511 C 645.691 517.357 642.681 516.603 640.636 514.552 C 638.591 512.501 637.847 509.488 638.7 506.72 C 639.554 503.953 641.867 501.883 644.712 501.341 z"/>
<path transform="translate(0,0)" fill="rgb(157,219,241)" d="M 1452.19 174.442 C 1457.42 172.291 1463.4 174.74 1465.63 179.94 C 1467.85 185.139 1465.49 191.161 1460.32 193.46 C 1456.92 194.976 1452.95 194.539 1449.96 192.317 C 1446.96 190.095 1445.39 186.431 1445.86 182.73 C 1446.32 179.028 1448.74 175.861 1452.19 174.442 z"/>
<path transform="translate(0,0)" fill="rgb(253,254,254)" d="M 1453.28 177.63 C 1456.83 176.061 1460.99 177.626 1462.62 181.149 C 1464.25 184.671 1462.75 188.851 1459.26 190.542 C 1456.94 191.662 1454.21 191.446 1452.1 189.978 C 1449.98 188.509 1448.83 186.016 1449.08 183.457 C 1449.32 180.897 1450.93 178.669 1453.28 177.63 z"/>
<path transform="translate(0,0)" fill="rgb(246,177,200)" d="M 589.922 1049.5 C 593.9 1051.85 597.987 1065.93 599.929 1071.3 C 595.482 1071.53 590.407 1071.15 585.902 1070.93 L 575.464 1069.02 C 579.105 1062.49 584.691 1054.83 589.922 1049.5 z"/>
<path transform="translate(0,0)" fill="rgb(253,254,254)" d="M 589.379 1055.72 C 591.568 1059.09 594.129 1063.24 593.62 1067.04 C 590.031 1068.92 589.447 1068.15 584.758 1067.94 C 581.749 1067.66 582.441 1068.19 580.871 1066.45 C 581.837 1062.8 586.558 1058.63 589.379 1055.72 z"/>
<path transform="translate(0,0)" fill="rgb(206,159,231)" d="M 387.987 248.654 C 390.691 247.512 393.802 247.932 396.107 249.751 C 398.411 251.569 399.543 254.497 399.062 257.393 C 398.58 260.288 396.561 262.692 393.792 263.667 C 389.688 265.111 385.178 263.034 383.609 258.975 C 382.04 254.917 383.979 250.346 387.987 248.654 z"/>
<path transform="translate(0,0)" fill="rgb(157,219,241)" d="M 1308.33 1119.58 C 1313.6 1119.76 1319.09 1123.5 1318.31 1129.38 C 1317.9 1132.48 1314.82 1133.94 1312.49 1135.62 C 1309.33 1136.24 1307.87 1135.46 1305.28 1133.85 C 1300.56 1127.88 1303.72 1123.61 1308.33 1119.58 z"/>
<path transform="translate(0,0)" fill="rgb(182,188,238)" d="M 978.217 103.885 C 981.365 103.811 984.041 106.168 984.367 109.3 C 984.694 112.432 982.56 115.289 979.464 115.866 C 977.227 116.283 974.946 115.408 973.562 113.603 C 972.178 111.797 971.925 109.367 972.907 107.315 C 973.89 105.263 975.942 103.937 978.217 103.885 z"/>
<path transform="translate(0,0)" fill="rgb(182,188,238)" d="M 800.05 879.729 C 802.833 878.23 806.305 879.26 807.82 882.034 C 809.335 884.809 808.325 888.286 805.559 889.817 C 802.771 891.361 799.258 890.341 797.731 887.543 C 796.203 884.746 797.244 881.24 800.05 879.729 z"/>
<path transform="translate(0,0)" fill="rgb(182,188,238)" d="M 1008.03 115.633 C 1009.65 114.589 1011.72 114.515 1013.41 115.438 C 1015.1 116.362 1016.16 118.137 1016.16 120.066 C 1016.16 121.995 1015.11 123.771 1013.41 124.696 C 1010.92 126.058 1007.8 125.203 1006.35 122.761 C 1004.9 120.32 1005.64 117.169 1008.03 115.633 z"/>
</svg>