<svg xmlns="http://www.w3.org/2000/svg" fill="currentColor" viewBox="0 0 24 24" width="64" height="64" class="stera stera-scan-dashed" aria-hidden="false" id="ScanDashed-Regular"><path fill="currentColor" d="M4 14.75c.41 0 .75.34.75.75v2c0 .97.78 1.75 1.75 1.75h2a.75.75 0 0 1 0 1.5h-2a3.25 3.25 0 0 1-3.25-3.25v-2c0-.41.34-.75.75-.75M20 14.75c.41 0 .75.34.75.75v2c0 1.8-1.46 3.25-3.25 3.25h-2a.75.75 0 0 1 0-1.5h2c.97 0 1.75-.78 1.75-1.75v-2c0-.41.34-.75.75-.75M21.5 11.25a.75.75 0 0 1 0 1.5h-19a.75.75 0 0 1 0-1.5zM8.5 3.25a.75.75 0 0 1 0 1.5h-2c-.97 0-1.75.78-1.75 1.75v2a.75.75 0 0 1-1.5 0v-2c0-1.8 1.46-3.25 3.25-3.25zM17.5 3.25c1.8 0 3.25 1.46 3.25 3.25v2a.75.75 0 0 1-1.5 0v-2c0-.97-.78-1.75-1.75-1.75h-2a.75.75 0 0 1 0-1.5z"/></svg>